<?xml version="1.0" encoding="UTF-8" standalone="no"?><!DOCTYPE svg PUBLIC "-//W3C//DTD SVG 1.1//EN" "http://www.w3.org/Graphics/SVG/1.1/DTD/svg11.dtd"><svg width="100%" height="100%" viewBox="0 0 190 41" version="1.1" xmlns="http://www.w3.org/2000/svg" xmlns:xlink="http://www.w3.org/1999/xlink" xml:space="preserve" xmlns:serif="http://www.serif.com/" style="fill-rule:evenodd;clip-rule:evenodd;stroke-linejoin:round;stroke-miterlimit:1.41421;"><g transform="matrix(0.699178,0,0,0.699178,-100.133,-64.9681)"><path d="M164.691,106.342l0,18.471c0,4.091 -2.686,6.839 -6.587,6.839c-3.901,0 -6.587,-2.748 -6.587,-6.839l0,-18.471l-8.301,0l0,18.471c0,4.027 1.405,7.35 4.214,9.839c2.746,2.554 6.325,3.831 10.738,3.831c4.412,0 7.991,-1.277 10.737,-3.831c2.745,-2.489 4.086,-5.812 4.086,-9.839l0,-18.471l-8.3,0Z" style="fill:#00ff5c;fill-rule:nonzero;"/><path d="M183.222,108.384c-2.363,1.787 -3.576,4.086 -3.576,6.964c0,4.539 3.384,7.544 10.092,9.143c0.192,0.064 0.512,0.128 0.959,0.192c5.117,1.086 7.42,1.918 7.42,4.219c0,2.11 -2.175,3.645 -5.245,3.645c-3.326,0 -5.628,-1.726 -5.819,-4.284l-8.046,0c0,3.005 1.278,5.433 3.896,7.348c2.618,1.914 5.94,2.872 10.033,2.872c4.03,0 7.288,-0.894 9.842,-2.745c2.491,-1.851 3.768,-4.214 3.768,-7.091c0,-2.494 -1.086,-4.604 -2.554,-5.883c-2.555,-1.982 -5.683,-3.005 -8.561,-3.516c-5.309,-1.087 -7.612,-1.982 -7.612,-4.284c0,-2.046 1.983,-3.453 4.797,-3.453c3.071,0 5.181,1.727 5.373,4.22l7.599,0c0,-2.941 -1.213,-5.368 -3.64,-7.219c-2.426,-1.851 -5.558,-2.809 -9.396,-2.809c-3.837,0 -6.968,0.894 -9.33,2.681Z" style="fill:#00ff5c;fill-rule:nonzero;"/><path d="M245.149,122.188c-0.064,-4.79 -1.661,-8.758 -4.856,-11.888c-3.195,-3.065 -7.22,-4.597 -12.141,-4.597c-4.92,0 -9.009,1.532 -12.204,4.597c-3.259,3.13 -4.857,7.034 -4.857,11.824c0,4.793 1.598,8.696 4.857,11.762c3.195,3.065 7.284,4.597 12.204,4.597c3.898,0 7.413,-1.086 10.48,-3.32c3.067,-2.234 5.048,-5.047 5.942,-8.502l-8.37,0c-1.215,2.879 -4.346,5.055 -7.988,5.055c-4.345,0 -7.795,-2.879 -8.818,-7.038l25.496,0c0.191,-0.703 0.255,-1.532 0.255,-2.49Zm-16.933,-9.718c4.026,0 7.54,2.368 8.818,5.888l-17.316,0c1.342,-3.584 4.6,-5.888 8.498,-5.888Z" style="fill:#00ff5c;fill-rule:nonzero;"/><path d="M259.274,106.342l-8.301,0l0,31.566l8.301,0l0,-15.208c0,-5.628 4.474,-9.079 11.44,-9.079l0,-8.301c-5.177,0 -9.203,2.937 -11.44,8.045l0,-7.023Z" style="fill:#00ff5c;fill-rule:nonzero;"/><rect x="275.132" y="93.56" width="8.301" height="44.348" style="fill:#858585;fill-rule:nonzero;"/><path d="M294.11,110.3c-3.257,3.129 -4.853,7.029 -4.853,11.825c0,4.796 1.596,8.696 4.853,11.761c3.193,3.065 7.284,4.597 12.208,4.597c4.924,0 9.015,-1.532 12.208,-4.597c3.192,-3.065 4.789,-6.965 4.789,-11.761c0,-4.796 -1.597,-8.696 -4.789,-11.825c-3.193,-3.064 -7.284,-4.597 -12.208,-4.597c-4.924,0 -9.015,1.533 -12.208,4.597Zm18.283,5.175c1.598,1.726 2.365,3.964 2.365,6.65c0,5.307 -3.58,9.144 -8.504,9.144c-4.924,0 -8.441,-3.837 -8.441,-9.144c0,-2.686 0.768,-4.924 2.366,-6.65c1.599,-1.726 3.581,-2.557 6.075,-2.557c2.494,0 4.54,0.831 6.139,2.557Z" style="fill:#858585;fill-rule:nonzero;"/><path d="M352.915,111.065c-2.75,-3.574 -6.459,-5.362 -11.127,-5.362c-4.156,0 -7.606,1.469 -10.288,4.341c-2.746,2.938 -4.087,6.646 -4.087,11.122c0,4.54 1.341,8.249 4.087,11.123c2.682,2.936 6.132,4.404 10.288,4.404c4.732,0 8.441,-1.787 11.127,-5.362l0,4.979c0,4.798 -3.517,8.316 -8.377,8.316c-3.773,0 -7.034,-2.111 -7.865,-5.118l-7.791,0c0.575,3.391 2.426,6.204 5.427,8.438c3.003,2.234 6.52,3.319 10.549,3.319c4.795,0 8.695,-1.468 11.824,-4.34c3.065,-2.938 4.597,-6.649 4.597,-11.125l0,-29.458l-8.364,0l0,4.723Zm-14.516,16.688c-1.598,-1.725 -2.429,-3.898 -2.429,-6.519c0,-2.625 0.831,-4.863 2.429,-6.59c1.599,-1.726 3.581,-2.557 6.075,-2.557c2.494,0 4.476,0.831 6.075,2.557c1.598,1.727 2.366,3.965 2.366,6.586c0,2.622 -0.768,4.796 -2.366,6.522c-1.599,1.727 -3.581,2.558 -6.075,2.558c-2.494,0 -4.476,-0.831 -6.075,-2.557Z" style="fill:#858585;fill-rule:nonzero;"/><path d="M376.747,94.199c-0.958,-0.831 -2.235,-1.278 -3.704,-1.278c-3.001,0 -5.045,1.917 -5.045,4.665c0,2.615 2.044,4.594 5.045,4.594c4.598,0.392 6.771,-5.233 3.704,-7.981Zm-7.854,43.709l8.364,0l0,-31.566l-8.364,0l0,31.566Z" style="fill:#858585;fill-rule:nonzero;"/><path d="M403.212,105.703c-4.413,0 -7.674,1.788 -9.912,5.363l0,-4.724l-8.365,0l0,31.566l8.365,0l0,-18.535c0,-4.155 2.622,-7.031 6.651,-7.031c3.901,0 6.587,2.749 6.587,7.031l0,18.535l8.3,0l0,-19.75c0,-3.643 -1.085,-6.646 -3.192,-9.007c-2.171,-2.299 -4.981,-3.448 -8.434,-3.448Z" style="fill:#858585;fill-rule:nonzero;"/></g></svg>