<svg xmlns="http://www.w3.org/2000/svg" width="32.666" height="32.667" viewBox="0 0 32.666 32.667">
  <path id="Path_1" data-name="Path 1" d="M16.333,0a16.333,16.333,0,0,0,0,32.667,1.007,1.007,0,1,0,0-2.013A14.32,14.32,0,1,1,30.65,16.335a9.28,9.28,0,0,1-4.269,7.955,6.172,6.172,0,0,1-2.959.761,4.73,4.73,0,0,0,1.591-1.531,2.069,2.069,0,0,0,.238-.359,16.27,16.27,0,0,0,.555-2.516c.243-1.066-4.658-3.143-5.084-1.815a12.7,12.7,0,0,1-.7,2.458c-.275.365-.953.193-1.377-.168-1.117-.952-2.364-2.352-3.458-3.457h0c-.028-.029-.062-.062-.092-.091l-.093-.092h0c-1.106-1.093-2.506-2.338-3.457-3.458-.36-.424-.534-1.1-.168-1.376a12.72,12.72,0,0,1,2.458-.7c1.326-.425-.75-5.329-1.816-5.084a16.035,16.035,0,0,0-2.516.552,2.292,2.292,0,0,0-.359.24c-2.8,1.775-3.16,6.083-.428,9.292,1.041,1.228,2.127,2.416,3.245,3.576l-.006,0c.031.031.063.06.1.09s.059.062.088.095l.006-.006a30.791,30.791,0,0,0,4.769,4.255c4.7,3.141,8.312,2.264,10.438,1.1,3.67-2.021,5.312-6.338,5.312-9.719A16.352,16.352,0,0,0,16.333,0Z" fill="#8c00d4"/>
</svg>
